# xmcd
#
# Track frame offsets:
#	150
#	17351
#	39689
#	68105
#	91287
#	107621
#
# Disc length: 1658 seconds
#
# Revision: 1
# Processed by: cddbd v1.5.2PL0 Copyright (c) Steve Scherf et al.
# Submitted via: audiograbber 1.80.04
#
DISCID=40067806
DTITLE=Martelle - Melting Point
DYEAR=2002
DGENRE=Blues
TTITLE0=Letter to my Love
TTITLE1=If I call your Name
TTITLE2=Still in love with you
TTITLE3=Last to know
TTITLE4=Up and away
TTITLE5=Something's going on
EXTD=
EXTT0=
EXTT1=
EXTT2=
EXTT3=
EXTT4=
EXTT5=
PLAYORDER=
